<?xml version="1.0" encoding="UTF-8"?>
<svg id="Layer_1" xmlns="http://www.w3.org/2000/svg" xmlns:xlink="http://www.w3.org/1999/xlink" version="1.1" viewBox="0 0 1280 1024">
  <!-- Generator: Adobe Illustrator 29.2.1, SVG Export Plug-In . SVG Version: 2.1.0 Build 116)  -->
  <defs>
    <style>
      .st0 {
        fill: url(#linear-gradient2);
      }

      .st1 {
        fill: url(#linear-gradient1);
      }

      .st2 {
        fill: url(#linear-gradient3);
      }

      .st3 {
        fill: url(#linear-gradient4);
      }

      .st4 {
        fill: url(#linear-gradient);
      }

      .st5 {
        fill: #a0cbf8;
      }

      .st6 {
        fill: #fff;
      }

      .st7 {
        fill: #3d93f0;
      }

      .st8 {
        fill: #b1c5da;
      }
    </style>
    <linearGradient id="linear-gradient" x1="-42.3" y1="1064.6" x2="-28.8" y2="1051.6" gradientTransform="translate(894.5 1052.9) scale(.6 -.6)" gradientUnits="userSpaceOnUse">
      <stop offset="0" stop-color="#fff"/>
      <stop offset="1" stop-color="#cbe2fb"/>
    </linearGradient>
    <linearGradient id="linear-gradient1" x1="-49.9" y1="996" x2="-38.7" y2="1049.3" gradientTransform="translate(894.5 1052.9) scale(.6 -.6)" gradientUnits="userSpaceOnUse">
      <stop offset="0" stop-color="#fff"/>
      <stop offset="1" stop-color="#cbe2fb"/>
    </linearGradient>
    <linearGradient id="linear-gradient2" x1="9" y1="1000.5" x2="2.4" y2="1032.2" gradientTransform="translate(894.5 1052.9) scale(.6 -.6)" gradientUnits="userSpaceOnUse">
      <stop offset="0" stop-color="#fff"/>
      <stop offset="1" stop-color="#cbe2fb"/>
    </linearGradient>
    <linearGradient id="linear-gradient3" x1="176" y1="872.8" x2="147.3" y2="804.9" gradientTransform="translate(-63.3 1967.9) scale(1.7 -1.7)" gradientUnits="userSpaceOnUse">
      <stop offset="0" stop-color="#0a8ecf"/>
      <stop offset="1" stop-color="#005492"/>
    </linearGradient>
    <linearGradient id="linear-gradient4" x1="244" y1="908.9" x2="132.7" y2="830.1" gradientTransform="translate(-63.3 1967.9) scale(1.7 -1.7)" gradientUnits="userSpaceOnUse">
      <stop offset="0" stop-color="#0a8ecf"/>
      <stop offset="1" stop-color="#005492"/>
    </linearGradient>
  </defs>
  <g id="logo-logo">
    <g>
      <path class="st6" d="M909.4,453.5c0,1.8-4.3,10.3-4.3,10.3l-8.1,12.8-25.5.7s-12-21.6-13.1-29c-.8-5.8,5.5-10.7,8.4-12.6.8-.5,1.5-.8,1.5-.8l4.3-.7,3.2,3.2s5,3.5,5.7,5c.7,1.4,2.8-1,2.8-1l6.4-2.2,7.4-4.6,5.7.7s5,6.7,6.4,9.6c1.4,2.8-.7,7.1-.7,8.9Z"/>
      <path class="st4" d="M875.3,444.9s-11-.8-7-8.1l5.1-1.6s4,1.9,4.8,2.4,6.2,5.6,6.2,5.6l-9.2,1.6Z"/>
      <path class="st1" d="M860,449.7s-.3-7.3,8.1-3.5c8.3,3.8,8.9,30.9,8.9,30.9,0,0-1.6.8-2.7.5-1.1-.3-4-.8-4.8-2.7-.8-1.9-9.4-25.3-9.4-25.3Z"/>
      <path class="st0" d="M902.1,473.3c-.6,1.4-3.7,4.1-3.7,4.1h-14.2c0,.1-.6-21.8,7.1-27.2,7.7-5.4,19.7-1.4,19.7-1.4,0,0-8.3,23.1-8.8,24.5Z"/>
      <path class="st7" d="M896.9,490.3l-.5,4.7c2.4,0,4.4.4,5.5.8l.5,2.5c-.7.5-1.7,1.1-3,1.6-1.2.5-2.1,1.2-2.9,2.2-.7,1-1.2,2.1-1.4,3.3,1.9,0,3.4.3,4.4.7l.4,2.2c-.5.4-1.2.8-2.2,1.2-1,.4-1.8,1.1-2.5,1.9-.6.8-1,1.8-1.2,2.9,1.3,0,2.3.3,3,.5l.4,1.8s0,0,0,0c-2.5,2-4.2,4.9-4.6,8.1v.6c0,0-7.7,8.7-7.7,8.7l-7.6-8.7-.2-1.7c.6-.1,1.2-.2,1.8-.4,5.2-1.1,9.6-2.7,11.4-4.1-1.6.4-3.3.7-5.1.9-5.2.7-9.8.7-12,0l-.3-2.2c.7-.5,1.9-1,3.3-1.4,0,0,.4-.2.6-.2,1.4-.4,3.1-.8,5-1.2,4.4-1.2,7.9-2.6,9.5-3.9-1.9.4-4,.8-6.2,1.1-6.3.9-11.8.8-14.4,0l-.4-2.7c1-.7,2.7-1.3,4.8-2,0,0,.7-.2,1.1-.3,1.2-.3,2.5-.6,3.9-.9,5.7-1.5,10.2-3.3,12.3-4.8-2.2.5-4.6,1-7.2,1.3-7.4,1-13.8,1-16.8,0l-.5-3.1c1.3-.8,3.4-1.7,6.1-2.4,0,0,.4-.1.5-.2,1.6-.4,3.4-.9,5.3-1.2,6.2-1.6,11.1-3.6,13.4-5.3-2.5.6-5.2,1.1-8.1,1.5-8.2,1.1-15.4,1.1-18.8,0l-.5-3.5c1.4-.9,3.8-1.9,6.8-2.7,3.7-.9,7.5-1.6,11-2,7.5,1.3,14.5,2.4,20.4,2.5h0c-1.3,1.2-4,2.3-7.5,3.4ZM940.6,465.7s-12.9,13-31.7,15.5c-18.8,2.5-53.9-11-79.3.9,0,0,7.2-7.3,27.6-9.4,2.4-.2,4.9-.2,7.6-.1-2.3-3.9-5.6-9.7-6.9-13.4-2.1-5.9-3.5-10.8-2.1-15.7,1.4-4.9,9.8-12.6,14.7-11.9,4.9.7,10.9,7.2,14.3,9.1,0,0,.2,0,.2.1,0,0,.2,0,.2-.1,3.4-1.9,9.4-8.4,14.3-9.1,4.9-.7,13.3,7,14.7,11.9,1.4,4.9,0,9.8-2.1,15.7-1.8,5-7.2,13.9-8.9,16.7,12-.1,24.7-2.4,37.2-10.2ZM871.7,473.2c7.5.8,15.9,2.1,24.7,2.6,1.3-1.5,3.8-4.4,5.7-8.1,2.8-5.2,8.4-14.3,7-20.6-1.4-6.3-6.6-8.7-9.4-9.4-2.8-.7-9.1,6.6-15,7.7-5.9,1-9.4-.4-9.4-.4,0,0,2.1-.5,5.2-1.8-4.1-2.5-7.9-6.1-9.9-5.6-2.8.7-8,3.1-9.4,9.4-1.4,6.3,4.2,15.4,7,20.6,1.1,2.1,2.4,4,3.6,5.5Z"/>
      <path class="st5" d="M877.8,489.4l.2,2.4c-1.4.4-5.9.1-5.9.1l-.5-2.6c1.5.2,6.2.1,6.2.1ZM873.3,500.4l.4,2.2s3.8.2,5,0l-.2-2s-3.9,0-5.2,0ZM875.5,510.1l.4,1.9s3.3.2,4.4,0l-.2-1.8s-3.4,0-4.6,0ZM877.4,517.7l.3,1.6s2.8.1,3.7,0v-1.5c-.1,0-3.1,0-4,0ZM880.4,525.2l4.5,6.1-1.9-6.7-2.6.6Z"/>
    </g>
  </g>
  <g id="shape-a8793f85-fe6a-4ead-a718-ad3b5cfc75b8">
    <g>
      <g id="path-02">
        <path class="st2" d="M179.2,564.3c-32.8-39.6,24.3-133.5,87.7-143.9-86.9,56-87.7,143.9-40.6,177.8,0,0-29.3-7.8-47.2-33.9Z"/>
      </g>
      <g id="path-01">
        <path class="st3" d="M252.3,401.7c-111.2,51-76.5,131.3-76.5,131.3-32.2-44.5-33.6-95-33.6-95-3.9-112.2,293.7-212,433.4-45.2-78.3-43.4-195.8-49.6-323.3,8.9Z"/>
      </g>
    </g>
  </g>
  <g id="shape-89f9746b-2327-4100-bea4-64747b183c49">
    <g id="path-011" data-name="path-01">
      <path class="st8" d="M745,564.7c-38-3.1-76.2,5.3-112.5,17-93.4,30.2-190.2,83.4-291,57.6-32.5-8.3-68.8-31.1-87.7-52.4,18.5,12.6,36.2,19.3,57.6,26,111.1,34.9,180.6-13.8,262.7-33.8-41.1,6.3-80.3,20.1-121.3,27.1-45.3,7.8-92.3,7.7-136.2-6.9-41.2-13.7-77.6-40.6-102.3-75.8,58.3,54.7,147.2,66,218.9,59.8,107.8-9.4,207.2-64.7,311.8-18.7Z"/>
    </g>
  </g>
  <g>
    <polygon points="414.8 514.5 456.4 514.5 456.4 504.6 424.7 504.6 424.7 484.2 451 484.2 451 474.4 424.7 474.4 424.7 458.4 456.4 458.4 456.4 448.6 414.8 448.6 414.8 514.5"/>
    <path d="M377.7,496.9c-2,2.7-4.6,4.9-7.7,6.5-3.1,1.6-6.4,2.4-9.8,2.4s-7.8-1.1-11.3-3.2c-3.4-2.2-6.2-5.1-8.2-8.8-2-3.7-3.1-7.8-3.1-12.2s1-8.4,3-12.1c2-3.7,4.8-6.7,8.2-8.9,3.4-2.2,7.2-3.3,11.3-3.3s6.7.8,9.7,2.4c3.1,1.6,5.7,3.8,7.8,6.5l1,1.4,8.7-4.7-1.3-1.8c-3-4.2-6.8-7.5-11.3-9.9-4.5-2.4-9.4-3.7-14.6-3.7s-11.3,1.5-16.3,4.6c-4.9,3.1-8.9,7.2-11.8,12.4-2.9,5.2-4.3,10.9-4.3,17s1.5,11.9,4.3,17.1c2.9,5.2,6.8,9.4,11.8,12.4,4.9,3.1,10.4,4.6,16.3,4.6s10.1-1.2,14.6-3.6c4.5-2.4,8.3-5.7,11.3-9.9l1.3-1.9-8.7-4.7-1,1.4Z"/>
    <path d="M287.8,452.1c-5-3.1-10.5-4.6-16.3-4.6s-11.3,1.6-16.3,4.6c-4.9,3-8.9,7.2-11.8,12.4s-4.4,10.9-4.4,17,1.5,11.9,4.4,17,6.9,9.4,11.8,12.4c5,3.1,10.4,4.6,16.3,4.6s11.4-1.6,16.3-4.6c4.9-3,8.9-7.2,11.8-12.4,2.9-5.2,4.4-10.9,4.4-17s-1.5-11.9-4.4-17c-2.9-5.2-6.9-9.4-11.8-12.4ZM294.2,481.5c0,4.3-1,8.4-3.1,12.1-2,3.7-4.8,6.7-8.3,8.9-3.4,2.2-7.2,3.3-11.3,3.3s-7.8-1.1-11.3-3.2c-3.5-2.2-6.3-5.2-8.3-8.9-2-3.7-3.1-7.8-3.1-12.1s1-8.4,3-12.1c2-3.7,4.8-6.7,8.3-8.9,3.4-2.2,7.3-3.3,11.3-3.3s7.9,1.1,11.3,3.2c3.5,2.2,6.3,5.2,8.3,8.9,2,3.7,3.1,7.8,3.1,12.1Z"/>
    <path d="M703,458.9c2.3-.9,4.7-1.3,7.3-1.3s4.6.3,6.7,1c2.1.6,4,1.6,5.5,2.8,1.4,1.1,2.4,2.4,2.9,3.9l.7,1.9,9.3-3.4-.7-1.9c-1.1-3-3-5.6-5.6-7.7-2.5-2.1-5.4-3.7-8.7-4.8-3.3-1.1-6.7-1.6-10.1-1.6s-8.1.8-11.7,2.4c-3.7,1.6-6.7,3.9-8.9,6.8-2.3,3-3.5,6.4-3.5,10.3s1.1,7.5,3.2,10.2c2.1,2.6,4.9,4.6,8.4,6,3.3,1.3,7.4,2.4,12.2,3.3,4.6.8,8.4,2.1,11.2,3.7,2.4,1.4,3.6,3.3,3.6,5.9s-.6,3.3-1.8,4.8c-1.3,1.5-3,2.7-5.2,3.5-2.3.9-4.7,1.3-7.4,1.3s-4.5-.3-6.7-1c-2.1-.6-4-1.6-5.5-2.8-1.4-1.1-2.4-2.4-2.9-3.9l-.7-1.9-9.2,3.4.7,1.9c1,2.9,2.8,5.5,5.4,7.6,2.5,2.1,5.4,3.7,8.7,4.8,3.3,1.1,6.7,1.7,10.2,1.7s8.2-.8,11.8-2.4c3.7-1.6,6.7-3.9,8.9-6.8,2.3-3,3.4-6.5,3.4-10.3,0-5.5-2.4-9.9-7-13.2-4.3-3-10-5.2-16.8-6.3-3.6-.7-6.5-1.3-8.6-2-1.9-.6-3.4-1.6-4.5-2.8-1-1.1-1.5-2.6-1.5-4.7s.6-3.3,1.8-4.7c1.3-1.5,3-2.7,5.2-3.5Z"/>
    <polygon points="958 448.6 948.2 448.6 948.2 514.5 986.6 514.5 986.6 504.6 958 504.6 958 448.6"/>
    <polygon points="1055.7 458.4 1055.7 448.6 1014.2 448.6 1014.2 514.5 1055.7 514.5 1055.7 504.6 1024 504.6 1024 484.2 1050.4 484.2 1050.4 474.4 1024 474.4 1024 458.4 1055.7 458.4"/>
    <polygon points="814.1 448.6 798 490.9 781.9 448.6 774.7 448.6 762 514.5 772 514.5 780.2 471.8 794.7 510.2 801.2 510.2 815.7 471.8 824 514.5 834.1 514.5 821.3 448.6 814.1 448.6"/>
    <path d="M504.7,448.6l-24,65.9h10.4l4.9-13.4h27.4l4.9,13.4h10.5l-24-65.9h-10.1ZM499.7,491.2l10.1-27.7,10.1,27.7h-20.2Z"/>
    <polygon points="604.5 495.2 574.5 448.6 565.1 448.6 565.1 514.5 574.9 514.5 574.9 467.9 605 514.5 614.3 514.5 614.3 448.6 604.5 448.6 604.5 495.2"/>
    <path d="M291.8,423.3c2.7-1.6,4.8-3.7,6.3-6.3,1.6-2.7,2.3-5.6,2.3-8.8s-.8-6.1-2.3-8.8c-1.6-2.7-3.7-4.8-6.3-6.3-2.7-1.6-5.6-2.4-8.8-2.4h-12.2v34.9h12.2c3.2,0,6.1-.8,8.8-2.4ZM293.6,408.2c0,1.9-.5,3.6-1.4,5.3-1,1.6-2.2,2.9-3.9,3.9-1.6,1-3.4,1.4-5.3,1.4h-5.3v-21.1h5.3c1.9,0,3.7.5,5.3,1.4,1.6,1,2.9,2.2,3.9,3.9,1,1.6,1.4,3.3,1.4,5.3Z"/>
    <path d="M249.3,424.8c1.7,1,3.7,1.5,5.9,1.5s3.9-.5,5.7-1.5c1.7-1,3.2-2.4,4.2-4,1.1-1.7,1.6-3.6,1.6-5.6s-.6-4.2-1.7-5.9c-.5-.8-1.1-1.4-1.8-2,.4-.4.7-.8,1.1-1.3,1-1.5,1.5-3.3,1.5-5.3s-.5-3.7-1.5-5.3c-1-1.6-2.3-2.9-3.9-3.8-3.3-1.8-7.3-1.9-10.6,0-1.7.9-3,2.2-4,3.8-1,1.6-1.6,3.4-1.6,5.3v2h6.9v-2c0-.6.2-1.1.5-1.6.4-.6.9-1,1.6-1.4,1.3-.7,2.6-.7,3.8,0,.6.3,1.1.8,1.4,1.4.3.5.5,1.1.5,1.6,0,1.2-.4,2-1.2,2.6-1,.7-2.4,1.1-4.2,1.1h-2v6.4h2c1.4,0,2.6.2,3.6.6.9.3,1.6.8,2.1,1.5.4.6.7,1.4.7,2.3s-.2,1.4-.6,2.1c-.4.7-1,1.2-1.7,1.6-.7.4-1.5.6-2.3.6s-1.8-.2-2.5-.6c-.7-.4-1.2-.9-1.5-1.5-.4-.7-.6-1.4-.6-2.2v-2h-6.9v2c0,2.1.5,4,1.5,5.6,1,1.7,2.4,3.1,4.1,4.1Z"/>
  </g>
</svg>