<?xml version="1.0" encoding="UTF-8"?>
<svg id="Layer_1" xmlns="http://www.w3.org/2000/svg" version="1.1" viewBox="0 0 720 720">
  <!-- Generator: Adobe Illustrator 29.2.1, SVG Export Plug-In . SVG Version: 2.1.0 Build 116)  -->
  <defs>
    <style>
      .st0 {
        fill: #eaeaea;
      }

      .st1 {
        fill: #010101;
      }

      .st2 {
        fill: #fff;
      }
    </style>
  </defs>
  <path class="st2" d="M502.3,186.6c0,10.4-25,60.5-25,60.5l-48,75.1-150.1,4.2s-70.9-127.2-77.1-171c-4.9-34.2,32.3-63.3,49.3-74.4,4.8-3.1,9.1-4.8,9.1-4.8l25-4.2,18.8,18.8s29.2,20.9,33.4,29.2c4.2,8.3,16.6-5.8,16.6-5.8l37.6-13,43.8-27.1,33.4,4.2s29.2,39.6,37.5,56.3c8.3,16.7-4.2,41.7-4.2,52.1Z"/>
  <path class="st0" d="M301.5,136.2s-64.7-4.8-40.9-47.5l30-9.5s23.7,11.1,28.5,14.2,36.4,33.2,36.4,33.2l-53.9,9.5Z"/>
  <path class="st0" d="M211.6,164.7s-1.6-42.7,47.4-20.6c49,22.1,52.2,181.9,52.2,181.9,0,0-9.5,4.7-15.8,3.2-6.3-1.6-23.7-4.7-28.5-15.8-4.7-11.1-55.4-148.7-55.4-148.7Z"/>
  <path class="st0" d="M459.6,303.5c-3.4,8.4-22,24.4-22,24.4l-83.7.8s-3.4-129.2,41.9-161c45.3-31.9,115.7-8.4,115.7-8.4,0,0-48.6,135.9-52,144.3Z"/>
  <path class="st1" d="M428.8,403.7l-3.2,27.9c14.3.5,25.6,2.2,32.6,4.9l3,14.9c-3.9,3.2-10,6.4-17.8,9.6-6.8,2.8-12.6,7.3-17,12.9-4.3,5.6-7.2,12.4-8,19.7,11.2.5,20.1,1.9,25.7,4.1l2.6,12.7c-2.9,2.4-7.3,4.8-12.9,7.2-5.9,2.5-10.9,6.5-14.6,11.5-3.7,5-6.1,10.9-6.9,17.2,7.6.6,13.6,1.6,17.7,3.2l2.1,10.6s0,0-.1,0c-14.8,11.9-24.6,28.7-26.8,47.6l-.4,3.8-44.9,51.1-44.9-51.1-1.2-10.2c3.6-.6,7.2-1.3,10.8-2.1,30.9-6.5,56.7-15.9,67.2-23.9-9.2,2.1-19.4,4-30.2,5.5-30.8,4.2-57.7,4.1-70.4.2l-1.9-13c4.4-2.8,11.2-5.7,19.6-8.5,0,0,2.5-.9,3.7-1.1,8.5-2.6,18.5-4.9,29.5-6.9,25.8-7,46.3-15.4,55.9-22.8-11.1,2.6-23.4,4.8-36.3,6.6-37,5.1-69.5,4.9-84.7.3l-2.3-15.7c6.1-3.9,15.9-7.9,28.3-11.6,0,0,4.2-1.3,6.3-1.8,6.9-1.9,14.6-3.7,22.7-5.3,33.4-8.6,60.3-19.3,72.4-28.5-12.9,3-27.3,5.6-42.5,7.7-43.3,6-81.2,5.7-99,.3l-2.7-18.3c7.6-4.9,20.1-9.9,35.8-14.4,0,0,2.1-.7,3.2-.9,9.5-2.6,20-5,31.3-7.2,36.4-9.5,65.6-21.2,79-31.4-14.5,3.3-30.5,6.3-47.5,8.6-48.4,6.7-90.8,6.4-110.7.4l-3-20.4c8.4-5.4,22.3-11,39.9-16,21.8-5.4,44.3-9.2,64.8-11.9,44.3,7.4,85.3,14.1,119.8,14.6l.2.9c-7.7,6.3-23.5,12.9-44.2,18.9ZM686.4,258.6s-75.9,76.5-186.5,91.1c-110.5,14.6-317.5-64.9-466.8,5.4,0,0,42.5-43.2,162.7-55.1,14-1.4,29-1.5,44.8-.7-13.7-23-33.1-57.1-40.7-78.7-12.3-35-20.6-63.8-12.3-92.6,8.2-28.8,57.6-74.1,86.4-70,28.8,4.1,64.3,42.2,84.4,53.5.5.3,1,.5,1.4.8.5-.3,1-.5,1.4-.8,20.1-11.3,55.6-49.4,84.4-53.5,28.8-4.1,78.2,41.2,86.4,70,8.2,28.8,0,57.6-12.3,92.6-10.4,29.4-42.5,82-52.5,98.1,70.8-.7,145.5-14.3,219.3-60.1ZM280.8,302.6c44.3,4.7,93.5,12.5,145.5,15.2,7.7-8.6,22.2-26.2,33.7-47.8,16.5-30.9,49.4-84.4,41.2-121.4-8.2-37-39.1-51.4-55.6-55.6-16.5-4.1-53.5,39.1-88.5,45.3-35,6.2-55.6-2.1-55.6-2.1,0,0,12.4-2.9,30.7-10.5-24.4-14.6-46.5-35.6-58.2-32.7-16.5,4.1-47.3,18.5-55.6,55.6-8.2,37.1,24.7,90.6,41.2,121.4,6.7,12.6,14.4,23.7,21.2,32.6Z"/>
  <path class="st0" d="M316.5,398.1l1.4,14c-8.4,2.1-35,.7-35,.7l-2.8-15.4c9.1,1.4,36.4.7,36.4.7ZM289.9,463.2l2.3,12.9s22.3,1.2,29.4-.6l-1.2-11.7s-22.9.6-30.5-.6ZM303.2,520l2.1,11.4s19.7,1,25.9-.5l-1-10.4s-20.2.5-27-.5ZM314.4,564.8l1.8,9.7s16.8.9,22.1-.4l-.9-8.8s-17.2.4-22.9-.4ZM331.9,608.9l26.6,35.7-11.2-39.2-15.4,3.5Z"/>
</svg>