<?xml version="1.0" encoding="UTF-8" standalone="no" ?>
<!DOCTYPE svg PUBLIC "-//W3C//DTD SVG 1.1//EN" "http://www.w3.org/Graphics/SVG/1.1/DTD/svg11.dtd">
<svg xmlns="http://www.w3.org/2000/svg" xmlns:xlink="http://www.w3.org/1999/xlink" version="1.1" width="1280" height="1024" viewBox="0 0 1280 1024" xml:space="preserve">
<desc>Created with Fabric.js 5.3.0</desc>
<defs>
</defs>
<g transform="matrix(1 0 0 1 640 512)" id="background-logo"  >
<rect style="stroke: none; stroke-width: 0; stroke-dasharray: none; stroke-linecap: butt; stroke-dashoffset: 0; stroke-linejoin: miter; stroke-miterlimit: 4; fill: rgb(6,45,85); fill-rule: nonzero; opacity: 1;"  paint-order="stroke"  x="-640" y="-512" rx="0" ry="0" width="1280" height="1024" />
</g>
<g transform="matrix(0.6649228969749401 0 0 0.6649228969749401 885.1560673516768 482.95183072275245)" id="logo-logo"  >
<g style=""  paint-order="stroke"   >
		<g transform="matrix(0.8402665895921066 0 0 0.8402665895921065 -1.097706389317409 -41.156924165289354)"  >
<path style="stroke: none; stroke-width: 1; stroke-dasharray: none; stroke-linecap: butt; stroke-dashoffset: 0; stroke-linejoin: miter; stroke-miterlimit: 4; fill: rgb(255,255,255); fill-rule: nonzero; opacity: 1;"  paint-order="stroke"  transform=" translate(-187.88619962265028, -103.09744750000002)" d="M 232.5283156 99.2936185 C 232.5283156 102.46343999999999 224.9207873 117.67858299999999 224.9207873 117.67858299999999 L 210.3396518 140.5012112 L 164.6943955 141.7691398 C 164.6943955 141.7691398 143.1396527 103.09740430000001 141.23775980000002 89.78424050000001 C 139.75326920000003 79.39267690000001 151.04710250000002 70.5460718 156.23094190000003 67.16366200000002 C 157.68839460000004 66.21267240000002 158.98871680000002 65.69368380000002 158.98871680000002 65.69368380000002 L 166.59628830000003 64.42575520000001 L 172.30192370000003 70.13134750000002 C 172.30192370000003 70.13134750000002 181.17738060000002 76.47099040000002 182.44530920000003 79.00684760000001 C 183.71323780000003 81.54270480000001 187.5017338 77.25603850000002 187.5017338 77.25603850000002 L 198.92833770000001 73.30116900000002 L 212.24154470000002 65.05971960000002 L 222.3849302 66.32756180000003 C 222.3849302 66.32756180000003 231.2603871 78.37288340000002 233.7962443 83.44459770000003 C 236.33210150000002 88.51631200000004 232.5283157 96.12384040000003 232.5283157 99.29361860000003 Z" stroke-linecap="round" />
</g>
		<g transform="matrix(0.8705939266517537 0 0 0.8705939266517536 -13.890857826013985 -64.50550651021888)"  >
<linearGradient id="SVGID_118_21596" gradientUnits="userSpaceOnUse" gradientTransform="matrix(1 0 0 1 0 0)"  x1="161.4226106" y1="69.9876417" x2="174.8811482" y2="82.9820918">
<stop offset="0%" style="stop-color:rgb(255,255,255);stop-opacity: 1"/>
<stop offset="100%" style="stop-color:rgb(203,226,251);stop-opacity: 1"/>
</linearGradient>
<path style="stroke: none; stroke-width: 1; stroke-dasharray: none; stroke-linecap: butt; stroke-dashoffset: 0; stroke-linejoin: miter; stroke-miterlimit: 4; fill: url(#SVGID_118_21596); fill-rule: nonzero; opacity: 1;"  paint-order="stroke"  transform=" translate(-171.5443892373138, -75.90632159999998)" d="M 170.4049546 84.2688202 C 170.4049546 84.2688202 151.42783029999998 82.8587106 158.3891428 70.32834799999999 L 167.2068054 67.54382299999999 C 167.2068054 67.54382299999999 174.1681179 70.79243549999998 175.5603805 71.72061049999999 C 176.95264310000002 72.6487855 186.2343931 81.4664481 186.2343931 81.4664481 L 170.40495470000002 84.2688202 Z" stroke-linecap="round" />
</g>
		<g transform="matrix(0.8705939266517537 0 0 0.8705939266517536 -25.142461621901703 -32.35693986944483)"  >
<linearGradient id="SVGID_119_21597" gradientUnits="userSpaceOnUse" gradientTransform="matrix(1 0 0 1 0 0)"  x1="153.83979" y1="138.6005956" x2="164.97789" y2="85.2305328">
<stop offset="0%" style="stop-color:rgb(255,255,255);stop-opacity: 1"/>
<stop offset="100%" style="stop-color:rgb(203,226,251);stop-opacity: 1"/>
</linearGradient>
<path style="stroke: none; stroke-width: 1; stroke-dasharray: none; stroke-linecap: butt; stroke-dashoffset: 0; stroke-linejoin: miter; stroke-miterlimit: 4; fill: url(#SVGID_119_21597); fill-rule: nonzero; opacity: 1;"  paint-order="stroke"  transform=" translate(-158.62033423137018, -112.83348782135798)" d="M 144.0024302 92.6045482 C 144.0024302 92.6045482 143.5383427 80.07418559999999 157.9250553 86.5714107 C 172.3117679 93.06863580000001 173.2399429 139.9414735 173.2399429 139.9414735 C 173.2399429 139.9414735 170.4554179 141.333736 168.5990679 140.8696485 C 166.7427179 140.40556100000003 161.6377554 139.47738600000002 160.2454928 136.22877350000002 C 158.85323019999998 132.980161 144.0024302 92.60454820000001 144.0024302 92.60454820000001 Z" stroke-linecap="round" />
</g>
		<g transform="matrix(0.8705939266517537 0 0 0.8705939266517536 18.63275783031048 -30.782012447444856)"  >
<linearGradient id="SVGID_120_21598" gradientUnits="userSpaceOnUse" gradientTransform="matrix(1 0 0 1 0 0)"  x1="212.6903422" y1="134.0771923" x2="206.1157547" y2="102.3996345">
<stop offset="0%" style="stop-color:rgb(255,255,255);stop-opacity: 1"/>
<stop offset="100%" style="stop-color:rgb(203,226,251);stop-opacity: 1"/>
</linearGradient>
<path style="stroke: none; stroke-width: 1; stroke-dasharray: none; stroke-linecap: butt; stroke-dashoffset: 0; stroke-linejoin: miter; stroke-miterlimit: 4; fill: url(#SVGID_120_21598); fill-rule: nonzero; opacity: 1;"  paint-order="stroke"  transform=" translate(-208.90235218728307, -114.64251425008234)" d="M 216.7865787 133.3403995 C 215.8020748 135.8016591 210.3396507 140.5011912 210.3396507 140.5011912 L 185.77470739999998 140.7241783 C 185.77470739999998 140.7241783 184.7902035 102.82078000000001 198.08100549999997 93.4679935 C 211.37180749999996 84.115207 232.0463883 91.0067339 232.0463883 91.0067339 C 232.0463883 91.0067339 217.77108249999998 130.87913989999998 216.78657859999998 133.3403995 Z" stroke-linecap="round" />
</g>
		<g transform="matrix(0.8705939266517537 0 0 0.8705939266517536 0 0)"  >
<path style="stroke: none; stroke-width: 1; stroke-dasharray: none; stroke-linecap: butt; stroke-dashoffset: 0; stroke-linejoin: miter; stroke-miterlimit: 4; fill: rgb(61,147,240); fill-rule: nonzero; opacity: 1;"  paint-order="stroke"  transform=" translate(-187.50000000000003, -150.00000010554936)" d="M 207.7464518 162.7565946 L 206.80172489999998 170.9405994 C 210.99453619999997 171.0962614 214.32757819999998 171.5880826 216.37619239999998 172.39127109999998 L 217.25725509999998 176.75745289999998 C 216.12144919999997 177.68447129999998 214.33466159999998 178.63628149999997 212.02771909999998 179.56679839999998 C 210.0215188 180.3770702 208.31610389999997 181.69682859999998 207.04234449999998 183.3456627 C 205.77562529999997 184.99803849999998 204.9406479 186.9829886 204.6929449 189.1306841 C 207.9764031 189.2898878 210.5876726 189.7003795 212.23646349999999 190.344321 L 212.9901545 194.0806849 C 212.13384059999998 194.7777087 210.8459575 195.4924411 209.20420679999998 196.1965483 C 207.474 196.9396142 206.00916149999998 198.10725219999998 204.9193977 199.5578807 C 203.82959069999998 201.0121373 203.1184001 202.7423009 202.9026155 204.6105044 C 205.1246003 204.7732498 206.9078894 205.0917437 208.0931928 205.5552313 L 208.719469 208.6582788 C 208.7053022 208.6688607 208.6946771 208.6794858 208.6805103 208.6865692 C 204.34616060000002 212.16469130000002 201.4519007 217.1217755 200.8149994 222.6413853 L 200.6841293 223.7524425 L 187.5006263 238.7581069 L 174.3135816 223.7524425 L 173.9668405 220.7484763 C 175.0106054 220.560939 176.07207879999999 220.3592348 177.147719 220.13282519999998 C 186.2091584 218.2292047 193.7774688 215.455233 196.85572439999999 213.10937499999997 C 194.15604199999999 213.73210949999998 191.16270089999998 214.28763809999998 187.99594599999998 214.72283529999999 C 178.9698805 215.96476259999997 171.05841379999998 215.91872049999998 167.34325689999997 214.7900412 L 166.78772829999997 210.97580309999998 C 168.08269469999996 210.14432419999997 170.06414629999998 209.2951369 172.54800089999998 208.49549009999998 C 172.54800089999998 208.49549009999998 173.27335829999998 208.23012179999998 173.6448481 208.15937409999998 C 176.1463681 207.40926799999997 179.0831284 206.71574259999997 182.2923405 206.1319668 C 189.8570661 204.0691425 195.872082 201.5994547 198.70976109999998 199.4376356 C 195.46167669999997 200.18769849999998 191.856183 200.8529335 188.04552979999997 201.37658679999998 C 177.18309279999997 202.87325739999997 167.65812269999998 202.81663339999997 163.18581949999998 201.4615012 L 162.51704289999998 196.8688666 C 164.30387369999997 195.72247879999998 167.18046829999997 194.5477574 170.80716909999998 193.4650338 C 170.80716909999998 193.4650338 172.0314311 193.07229379999998 172.65766409999998 192.94138049999998 C 174.69569649999997 192.38939359999998 176.93184809999997 191.86574029999997 179.3095813 191.3951693 C 189.11758509999999 188.8794825 196.9901794 185.74460299999998 200.5637979 183.0236704 C 196.76726829999998 183.9011482 192.55325 184.67958789999997 188.0914855 185.29169729999998 C 175.3927635 187.03961259999997 164.2578748 186.97590519999997 159.028382 185.38723679999998 L 158.2499423 180.01970409999998 C 160.46842859999998 178.59378109999997 164.1340449 177.12898589999998 168.76209649999998 175.8021441 C 168.76209649999998 175.8021441 169.3847878 175.60044 169.6996968 175.5367758 C 172.4772534 174.77250289999998 175.5696758 174.05777049999998 178.89204949999998 173.4244541 C 189.5810727 170.6362724 198.1436507 167.20419239999998 202.06401019999998 164.21793459999998 C 197.8216583 165.1980353 193.11223399999997 166.06842959999997 188.133986 166.75128669999998 C 173.9455904 168.70794639999997 161.50161169999998 168.63365699999997 155.6599663 166.86099299999998 L 154.7895287 160.86368559999997 C 157.2628014 159.27147549999998 161.338823 157.64384839999997 166.486943 156.16134459999998 C 172.8982838 154.5903847 179.4864936 153.46870239999998 185.505008 152.67259739999997 C 198.4974752 154.85221139999996 210.527507 156.81236949999996 220.6681282 156.96453309999998 L 220.71762560000002 157.2192763 C 218.44610020000002 159.06977129999999 213.83575700000003 161.0193476 207.74645180000002 162.7565946 Z M 283.3532372 120.1707191 C 283.3532372 120.1707191 261.0696385 142.6326122 228.63211560000002 146.9107698 C 196.19454950000002 151.1889706 135.45767770000003 127.8558193 91.64676280000003 148.5035846 C 91.64676280000003 148.5035846 104.12045730000003 135.81324170000002 139.39177210000003 132.33805660000002 C 143.51076920000003 131.93222960000003 147.90165650000003 131.90830150000002 152.52970810000002 132.1295282 C 148.5033567 125.3887662 142.81387490000003 115.3696857 140.57638430000003 109.03194320000001 C 136.95322520000002 98.76395030000002 134.53661970000002 90.30749380000002 136.95322520000002 81.85466540000002 C 139.36987390000002 73.39829530000002 153.86251020000003 60.11216930000002 162.3189235 61.31867970000002 C 170.77533680000002 62.528731700000016 181.19545000000002 73.70961940000002 187.0795526 77.02136800000002 C 187.221091 77.10282710000003 187.3590877 77.17711640000002 187.5006262 77.25494740000002 C 187.6385797 77.17711640000002 187.7801613 77.09928540000001 187.9181149 77.02136800000002 C 193.8057592 73.70961940000002 204.2259156 62.528731800000024 212.6822857 61.318679700000025 C 221.1351573 60.11216940000003 235.63137849999998 73.39829530000003 238.0444423 81.85466540000003 C 240.4610478 90.30749380000003 238.0444423 98.76395040000003 234.42123999999998 109.03194320000003 C 231.37740799999997 117.65382300000003 221.9469408 133.08621910000002 219.00629329999998 137.80799620000002 C 239.7787091 137.59540780000003 261.7053736 133.61047710000003 283.3532371 120.17071910000001 Z M 164.3128575 133.0865214 C 177.3251495 134.46920970000002 191.7583543 136.76077600000002 207.00299710000002 137.54478740000002 C 209.25979420000002 135.0207215 213.5277154 129.86439510000002 216.9069291 123.52457940000002 C 221.7402266 114.46663860000002 231.40315020000003 98.76395030000002 228.98654470000002 87.89093140000003 C 226.56989600000003 77.02136780000004 217.51199830000002 72.79318280000003 212.68228570000002 71.58667240000003 C 207.84907460000002 70.38016210000002 196.97959740000002 83.06117560000003 186.71160460000002 84.87279830000003 C 176.44361170000002 86.68433460000003 170.4038039 84.26777230000003 170.4038039 84.26777230000003 C 170.4038039 84.26777230000003 174.04112980000002 83.42916690000003 179.4050775 81.18243330000003 C 172.2472155 76.89758100000003 165.75458840000002 70.72690310000003 162.3189235 71.58667240000003 C 157.48566920000002 72.79318270000003 148.4277716 77.02136780000002 146.011166 87.89093140000003 C 143.598059 98.76395030000003 153.2610258 114.46663850000003 158.0906952 123.52457940000002 C 160.055734 127.20755860000003 162.3178437 130.48613620000003 164.31285739999998 133.0865214 Z" stroke-linecap="round" />
</g>
		<g transform="matrix(0.8705939266517537 0 0 0.8705939266517536 -10.34285116637028 41.07745397546856)"  >
<path style="stroke: none; stroke-width: 1; stroke-dasharray: none; stroke-linecap: butt; stroke-dashoffset: 0; stroke-linejoin: miter; stroke-miterlimit: 4; fill: rgb(160,203,248); fill-rule: nonzero; opacity: 1;"  paint-order="stroke"  transform=" translate(-175.61977565, -197.18325365)" d="M 174.7976284 161.1115421 L 175.20870200000002 165.22227850000002 C 172.7422602 165.83888900000002 164.93186110000002 165.42781530000002 164.93186110000002 165.42781530000002 L 164.1097138 160.90600530000003 C 166.7816924 161.31707890000004 174.7976283 161.11154210000004 174.7976283 161.11154210000004 Z M 166.9872293 180.2264662 L 167.6767961 184.0190834 C 167.6767961 184.0190834 174.2276804 184.3638668 176.2963807 183.8466917 L 175.95159729999997 180.3988579 C 175.95159729999997 180.3988579 169.22832129999998 180.5712496 166.98722929999997 180.2264662 Z M 170.8924288 196.8749484 L 171.50142680000002 200.2244373 C 171.50142680000002 200.2244373 177.2869076 200.5289363 179.11390150000003 200.0721878 L 178.80940250000003 197.0271979 C 178.80940250000003 197.0271979 172.87167220000003 197.17944740000002 170.89242880000003 196.8749484 Z M 174.1810179 210.0293048 L 174.6986662 212.8763704 C 174.6986662 212.8763704 179.6163249 213.1351945 181.1692697 212.74695830000002 L 180.9104456 210.15871690000003 C 180.9104456 210.15871690000003 175.8633748 210.28812900000003 174.1810179 210.02930480000003 Z M 179.3194384 222.9781243 L 187.1298375 233.460502 L 183.8412484 221.9504402 L 179.31943840000002 222.9781243 Z" stroke-linecap="round" />
</g>
</g>
</g>
<g transform="matrix(1.9211538461538462 0 0 1.9211538461538462 647.3720981952824 481.52152341135724)" id="text-logo"  >
<g style=""  paint-order="stroke"   >
		<g transform="matrix(1 0 0 1 5.684342e-14 -2.842171e-14)" id="text-logo-path-0"  >
<path style="stroke: none; stroke-width: 0; stroke-dasharray: none; stroke-linecap: butt; stroke-dashoffset: 0; stroke-linejoin: miter; stroke-miterlimit: 4; fill: rgb(255,255,255); fill-rule: nonzero; opacity: 1;"  paint-order="stroke"  transform=" translate(-235.76, 16.099999999999998)" d="M 40.11 0.6 Q 35.81 0.6 32.17 -1.66 Q 28.52 -3.91 26.38 -7.74 Q 24.24 -11.57 24.24 -16.1 L 24.24 -16.1 Q 24.24 -20.63 26.38 -24.46 Q 28.52 -28.29 32.17 -30.54 Q 35.81 -32.8 40.11 -32.8 L 40.11 -32.8 Q 44.41 -32.8 48.06 -30.54 Q 51.7 -28.29 53.84 -24.46 Q 55.98 -20.63 55.98 -16.1 L 55.98 -16.1 Q 55.98 -11.57 53.84 -7.74 Q 51.7 -3.91 48.06 -1.66 Q 44.41 0.6 40.11 0.6 L 40.11 0.6 Z M 40.11 -2.44 Q 43.61 -2.44 46.56 -4.3 Q 49.52 -6.16 51.23 -9.3 Q 52.95 -12.44 52.95 -16.1 L 52.95 -16.1 Q 52.95 -19.78 51.22 -22.92 Q 49.5 -26.06 46.54 -27.91 Q 43.59 -29.76 40.11 -29.76 L 40.11 -29.76 Q 36.62 -29.76 33.66 -27.9 Q 30.7 -26.04 28.99 -22.9 Q 27.28 -19.76 27.28 -16.1 L 27.28 -16.1 Q 27.28 -12.42 29 -9.28 Q 30.73 -6.14 33.68 -4.29 Q 36.64 -2.44 40.11 -2.44 L 40.11 -2.44 Z M 86.25 0.6 Q 81.95 0.6 78.32 -1.64 Q 74.68 -3.89 72.55 -7.73 Q 70.43 -11.57 70.43 -16.1 L 70.43 -16.1 Q 70.43 -20.63 72.55 -24.47 Q 74.68 -28.31 78.32 -30.56 Q 81.95 -32.8 86.25 -32.8 L 86.25 -32.8 Q 90.07 -32.8 93.37 -31.02 Q 96.67 -29.23 98.9 -26.15 L 98.9 -26.15 L 96.21 -24.7 Q 94.46 -27.02 91.8 -28.39 Q 89.15 -29.76 86.25 -29.76 L 86.25 -29.76 Q 82.75 -29.76 79.81 -27.9 Q 76.87 -26.04 75.16 -22.9 Q 73.46 -19.76 73.46 -16.1 L 73.46 -16.1 Q 73.46 -12.4 75.19 -9.26 Q 76.91 -6.12 79.84 -4.28 Q 82.78 -2.44 86.25 -2.44 L 86.25 -2.44 Q 89.22 -2.44 91.85 -3.79 Q 94.48 -5.15 96.21 -7.47 L 96.21 -7.47 L 98.9 -6.03 Q 96.67 -2.94 93.37 -1.17 Q 90.07 0.6 86.25 0.6 L 86.25 0.6 Z M 115.76 0 L 115.76 -32.2 L 135.31 -32.2 L 135.31 -29.16 L 118.8 -29.16 L 118.8 -18.77 L 132.5 -18.77 L 132.5 -15.73 L 118.8 -15.73 L 118.8 -3.04 L 135.31 -3.04 L 135.31 0 L 115.76 0 Z M 162.24 -32.2 L 166.06 -32.2 L 177.79 0 L 174.55 0 L 172.02 -6.99 L 156.31 -6.99 L 153.75 0 L 150.53 0 L 162.24 -32.2 Z M 157.41 -10.03 L 170.89 -10.03 L 164.15 -28.52 L 157.41 -10.03 Z M 193.96 0 L 193.96 -32.2 L 197.25 -32.2 L 214.5 -5.47 L 214.5 -32.2 L 217.53 -32.2 L 217.53 0 L 214.27 0 L 196.99 -26.73 L 196.99 0 L 193.96 0 Z M 268.52 0.6 Q 265.95 0.6 263.53 -0.21 Q 261.12 -1.01 259.34 -2.52 Q 257.55 -4.03 256.84 -6.05 L 256.84 -6.05 L 259.69 -7.11 Q 260.2 -5.68 261.56 -4.62 Q 262.91 -3.56 264.75 -3 Q 266.59 -2.44 268.52 -2.44 L 268.52 -2.44 Q 270.78 -2.44 272.73 -3.2 Q 274.69 -3.96 275.87 -5.34 Q 277.06 -6.72 277.06 -8.49 L 277.06 -8.49 Q 277.06 -11.04 274.69 -12.44 Q 272.32 -13.85 268.52 -14.51 L 268.52 -14.51 Q 264.87 -15.16 262.38 -16.15 Q 259.9 -17.13 258.45 -18.94 Q 257 -20.75 257 -23.6 L 257 -23.6 Q 257 -26.27 258.59 -28.32 Q 260.18 -30.38 262.82 -31.52 Q 265.47 -32.66 268.52 -32.66 L 268.52 -32.66 Q 271.05 -32.66 273.46 -31.87 Q 275.86 -31.07 277.67 -29.57 Q 279.47 -28.06 280.25 -25.99 L 280.25 -25.99 L 277.38 -24.95 Q 276.87 -26.38 275.52 -27.44 Q 274.16 -28.5 272.32 -29.06 Q 270.48 -29.62 268.52 -29.62 L 268.52 -29.62 Q 266.29 -29.62 264.34 -28.85 Q 262.38 -28.08 261.21 -26.71 Q 260.04 -25.35 260.04 -23.6 L 260.04 -23.6 Q 260.04 -21.6 261.1 -20.45 Q 262.15 -19.3 263.88 -18.72 Q 265.6 -18.15 268.52 -17.62 L 268.52 -17.62 Q 273.65 -16.74 276.87 -14.5 Q 280.09 -12.26 280.09 -8.49 L 280.09 -8.49 Q 280.09 -5.82 278.51 -3.75 Q 276.92 -1.68 274.27 -0.54 Q 271.63 0.6 268.52 0.6 L 268.52 0.6 Z M 296.68 0 L 302.91 -32.2 L 305.09 -32.2 L 314.18 -8.28 L 323.24 -32.2 L 325.43 -32.2 L 331.68 0 L 328.55 0 L 323.72 -24.98 L 315.12 -2.23 L 313.19 -2.23 L 304.59 -24.98 L 299.76 0 L 296.68 0 Z M 393.37 0 L 393.37 -32.2 L 396.41 -32.2 L 396.41 -3.04 L 411.31 -3.04 L 411.31 0 L 393.37 0 Z M 427.73 0 L 427.73 -32.2 L 447.28 -32.2 L 447.28 -29.16 L 430.77 -29.16 L 430.77 -18.77 L 444.48 -18.77 L 444.48 -15.73 L 430.77 -15.73 L 430.77 -3.04 L 447.28 -3.04 L 447.28 0 L 427.73 0 Z" stroke-linecap="round" />
</g>
</g>
</g>
<g transform="matrix(1.733613485117706 0 0 1.733613485117706 358.8455817662702 451.20439555853824)" id="shape-a8793f85-fe6a-4ead-a718-ad3b5cfc75b8"  >
<g style=""  paint-order="stroke"   >
		<g transform="matrix(1 0 0 1 -81.07706031176109 33.545596520781324)" id="path-02"  >
<linearGradient id="SVGID_122_21602" gradientUnits="userSpaceOnUse" gradientTransform="matrix(1 0 0 1 0 0)"  x1="57.51062" y1="86.92097" x2="28.79689" y2="154.74478">
<stop offset="0%" style="stop-color:rgb(10,142,207);stop-opacity: 1"/>
<stop offset="100%" style="stop-color:rgb(0,84,146);stop-opacity: 1"/>
</linearGradient>
<path style="stroke: none; stroke-width: 0; stroke-dasharray: none; stroke-linecap: butt; stroke-dashoffset: 0; stroke-linejoin: miter; stroke-miterlimit: 4; fill: url(#SVGID_122_21602); fill-rule: nonzero; opacity: 1;"  paint-order="stroke"  transform=" translate(-43.92294015633885, -118.37335999999999)" d="M 21.37499 150.08934 C 2.4777500000000003 127.24659 35.38277 73.05682999999999 71.97804000000001 67.09119 C 21.82359000000001 99.37269 21.374990000000004 150.08934 48.586850000000005 169.65553 C 48.586850000000005 169.65553 31.708380000000005 165.14678 21.374990000000004 150.08934 Z" stroke-linecap="round" />
</g>
		<g transform="matrix(1 0 0 1 -1.421085e-14 -18.83199500000002)" id="path-01"  >
<linearGradient id="SVGID_123_21603" gradientUnits="userSpaceOnUse" gradientTransform="matrix(1 0 0 1 0 0)"  x1="125.5227" y1="50.76875" x2="14.17956" y2="129.61461">
<stop offset="0%" style="stop-color:rgb(10,142,207);stop-opacity: 1"/>
<stop offset="100%" style="stop-color:rgb(0,84,146);stop-opacity: 1"/>
</linearGradient>
<path style="stroke: none; stroke-width: 0; stroke-dasharray: none; stroke-linecap: butt; stroke-dashoffset: 0; stroke-linejoin: miter; stroke-miterlimit: 4; fill: url(#SVGID_123_21603); fill-rule: nonzero; opacity: 1;"  paint-order="stroke"  transform=" translate(-125.00000046809993, -65.99576847921864)" d="M 63.53028 56.26619 C -0.59346 85.68923 19.38147 131.99154 19.38147 131.99154 C 0.83292 106.29737 0.02238 77.18457 0.02238 77.18457 C -2.25216 12.45184 169.43638 -45.09346 250 51.11912 C 204.85481 26.069180000000003 137.06646999999998 22.52427 63.530280000000005 56.26619 Z" stroke-linecap="round" />
</g>
</g>
</g>
<g transform="matrix(2.0370900734689 0.507903599629669 -0.507903599629669 2.0370900734689 470.14645401699636 582.2321188967368)" id="shape-89f9746b-2327-4100-bea4-64747b183c49"  >
<g style=""  paint-order="stroke"   >
		<g transform="matrix(1 0 0 1 0 0)" id="path-01"  >
<path style="stroke: none; stroke-width: 1; stroke-dasharray: none; stroke-linecap: butt; stroke-dashoffset: 0; stroke-linejoin: miter; stroke-miterlimit: 4; fill: rgb(177,197,218); fill-rule: nonzero; opacity: 1;"  paint-order="stroke"  transform=" translate(-125.00001, -41.22762357305797)" d="M 250.00002 1.4494 C 232.08141 4.39184 215.39229 12.66229 199.95617000000001 22.286160000000002 C 160.28291 47.0069 121.64503 82.73111 72.10147 82.45364 C 56.117740000000005 82.3641 36.730140000000006 76.01776 25.522640000000003 68.32873 C 35.51898 72.04257 44.46115 73.08483 55.15485 73.72725999999999 C 110.51674 77.05324999999999 137.01561 46.54393999999999 172.68483 27.83876999999999 C 154.43517 35.49275999999999 137.89186 46.37453999999999 119.74323000000001 54.35353999999999 C 99.72366 63.15768 77.98174 68.56107 56.0023 66.87167 C 35.39568 65.2894 15.44177 57.07556 0 43.60156 C 33.24319 62.17206 75.62283 57.15344 108.03816 46.01556 C 156.76283 29.27441 196.32341 -7.75961 250.00002 1.4494 z" stroke-linecap="round" />
</g>
</g>
</g>
<g transform="matrix(1.9211538461538462 0 0 1.9211538461538462 272.077290115876 408.1988233536649)" id="tagline-bc508595-be4f-4546-8fc8-e6dbc375057c-logo"  >
<g style=""  paint-order="stroke"   >
		<g transform="matrix(1 0 0 1 0 0)" id="tagline-bc508595-be4f-4546-8fc8-e6dbc375057c-logo-path-0"  >
<path style="stroke: none; stroke-width: 0; stroke-dasharray: none; stroke-linecap: butt; stroke-dashoffset: 0; stroke-linejoin: miter; stroke-miterlimit: 4; fill: rgb(255,255,255); fill-rule: nonzero; opacity: 1;"  paint-order="stroke"  transform=" translate(-14.424999999999999, 8.055)" d="M 5.63 0.3 Q 4.2 0.3 3.07 -0.34 Q 1.94 -0.98 1.32 -2.07 Q 0.69 -3.16 0.69 -4.49 L 0.69 -4.49 L 2.21 -4.49 Q 2.21 -3.58 2.63 -2.83 Q 3.05 -2.08 3.82 -1.65 Q 4.6 -1.22 5.63 -1.22 L 5.63 -1.22 Q 6.52 -1.22 7.31 -1.66 Q 8.1 -2.1 8.58 -2.85 Q 9.06 -3.6 9.06 -4.49 L 9.06 -4.49 Q 9.06 -5.57 8.51 -6.31 Q 7.96 -7.06 6.98 -7.44 Q 6 -7.82 4.73 -7.82 L 4.73 -7.82 L 4.73 -9.08 Q 6.5 -9.08 7.53 -9.84 Q 8.57 -10.6 8.57 -12.02 L 8.57 -12.02 Q 8.57 -12.78 8.14 -13.44 Q 7.72 -14.11 7.02 -14.5 Q 6.33 -14.89 5.54 -14.89 L 5.54 -14.89 Q 4.76 -14.89 4.04 -14.5 Q 3.31 -14.1 2.86 -13.44 Q 2.42 -12.78 2.42 -12.02 L 2.42 -12.02 L 0.9 -12.02 Q 0.9 -13.19 1.55 -14.2 Q 2.2 -15.21 3.27 -15.81 Q 4.34 -16.41 5.53 -16.41 L 5.53 -16.41 Q 6.72 -16.41 7.77 -15.82 Q 8.82 -15.23 9.45 -14.21 Q 10.09 -13.2 10.09 -12.02 L 10.09 -12.02 Q 10.09 -10.81 9.46 -9.86 Q 8.84 -8.9 7.8 -8.51 L 7.8 -8.51 Q 9.13 -8.05 9.86 -6.97 Q 10.58 -5.89 10.58 -4.49 L 10.58 -4.49 Q 10.58 -3.2 9.9 -2.1 Q 9.21 -1 8.07 -0.35 Q 6.93 0.3 5.63 0.3 L 5.63 0.3 Z M 14.79 -16.1 L 20.11 -16.1 Q 22.3 -16.1 24.15 -15.01 Q 26 -13.93 27.08 -12.08 Q 28.16 -10.23 28.16 -8.05 L 28.16 -8.05 Q 28.16 -5.87 27.08 -4.02 Q 26 -2.17 24.15 -1.09 Q 22.3 0 20.11 0 L 20.11 0 L 14.79 0 L 14.79 -16.1 Z M 20.11 -1.52 Q 21.88 -1.52 23.39 -2.4 Q 24.89 -3.28 25.77 -4.78 Q 26.65 -6.28 26.65 -8.05 L 26.65 -8.05 Q 26.65 -9.82 25.77 -11.32 Q 24.89 -12.82 23.39 -13.7 Q 21.88 -14.58 20.11 -14.58 L 20.11 -14.58 L 16.31 -14.58 L 16.31 -1.52 L 20.11 -1.52 Z" stroke-linecap="round" />
</g>
</g>
</g>
</svg>